HIERARCHY
ROOT Hips
{
	OFFSET	0.00	0.00	0.00
	CHANNELS 6 Xposition Yposition Zposition Zrotation Xrotation Yrotation
	JOINT Spine
	{
		OFFSET	 0.00	0.01	 0.00
		CHANNELS 3 Zrotation Xrotation Yrotation
		JOINT Spine1
		{
			OFFSET	 0.00	 2.45913012437421	 0.00
			CHANNELS 3 Zrotation Xrotation Yrotation
            JOINT Neck
            {
                OFFSET	 0.00	 2.48462964506057	 0.00
                CHANNELS 3 Zrotation Xrotation Yrotation
                JOINT Head
                {
                    OFFSET	 0.00	 0.927524780924562	 0.00
                    CHANNELS 3 Zrotation Xrotation Yrotation
                    End Site 
                    {
                        OFFSET	 0.00	 1.14999962169752	 0.00
                    }
                }
            }
			JOINT LeftShoulder
			{
				OFFSET	 0.00	 2.48462964506057	 0.00
				CHANNELS 3 Zrotation Xrotation Yrotation
				JOINT LeftUpArm
				{
					OFFSET	 0.00	 1.24881979654096	 0.00
					CHANNELS 3 Zrotation Xrotation Yrotation
					JOINT LeftForeArm
					{
						OFFSET	 0.00	2.59758046908119	 0.00
						CHANNELS 3 Zrotation Xrotation Yrotation
						JOINT LeftHand
						{
							OFFSET	 0.00	2.45542024364365	 0.00
							CHANNELS 3 Zrotation Xrotation Yrotation
							JOINT LeftHandThumb 
							{
								OFFSET	 0.00	0.00	 0.00
								CHANNELS 3 Zrotation Xrotation Yrotation
								End Site
								{
									OFFSET	 0.00	0.00	1.00000003353624
								}
							}
							JOINT L_Wrist_End 
							{
								OFFSET	 0.00	0.99999967115358	 0.00
								CHANNELS 3 Zrotation Xrotation Yrotation
								End Site 
								{
									OFFSET	 0.00	 0.00	 0.00
								}
							}
						}
					}
				}
			}
			JOINT RightShoulder
			{
				OFFSET	 0.00	 2.48462964506057	 0.00
				CHANNELS 3 Zrotation Xrotation Yrotation
				JOINT RightUpArm
				{
					OFFSET	 0.00	 1.24881979654096	 0.00
					CHANNELS 3 Zrotation Xrotation Yrotation
					JOINT RightForeArm
					{
						OFFSET	 0.00	2.59758046908119	 0.00
						CHANNELS 3 Zrotation Xrotation Yrotation
						JOINT RightHand
						{
							OFFSET	 0.00	2.45542024364365	 0.00
							CHANNELS 3 Zrotation Xrotation Yrotation
							JOINT RightHandThumb 
							{
								OFFSET	 0.00	0.00	 0.00
								CHANNELS 3 Zrotation Xrotation Yrotation
								End Site
								{
									OFFSET	 0.00	0.00	1.00000003353624
								}
							}
							JOINT R_Wrist_End 
							{
								OFFSET	 0.00	0.99999967115358	 0.00
								CHANNELS 3 Zrotation Xrotation Yrotation
								End Site 
								{
									OFFSET	 0.00	 0.00	 0.00
								}
							}
						}
					}
				}
			}
		}
	}
	JOINT LeftUpLeg
	{
		OFFSET	 1.2719394002717	 0.00	 0.00
		CHANNELS 3 Zrotation Xrotation Yrotation
		JOINT LeftLowLeg
		{
			OFFSET	 0.00	-4.3429100912261	 0.00
			CHANNELS 3 Zrotation Xrotation Yrotation
			JOINT LeftFoot
			{
				OFFSET	 0.00	-4.48767017425826	 0.00
				CHANNELS 3 Zrotation Xrotation Yrotation
				JOINT LeftToeBase
                {
                    OFFSET	 0.00	0.00	 1.51507020887566
                    CHANNELS 3 Zrotation Xrotation Yrotation
                    End Site 
                    {
                        OFFSET	 0.00	0.00	 0.75000010571191
                    }
                }
			}
		}
	}
	JOINT RightUpLeg
	{
		OFFSET	 -1.2719393604653	 0.00	 0.00
		CHANNELS 3 Zrotation Xrotation Yrotation
		JOINT RightLowLeg
		{
			OFFSET	 0.00	-4.3429100912261	 0.00
			CHANNELS 3 Zrotation Xrotation Yrotation
			JOINT RightFoot
			{
				OFFSET	 0.00	-4.48767017425826	 0.00
				CHANNELS 3 Zrotation Xrotation Yrotation
				JOINT RightToeBase
                {
                    OFFSET	 0.00	0.00	 1.51507020887566
                    CHANNELS 3 Zrotation Xrotation Yrotation
                    End Site 
                    {
                        OFFSET	 0.00	0.00	 0.749999965609858
                    }
                }   
			}
		}
	}
}
MOTION 
Frames:	13 
Frame Time: 0.02 
  2.35302001953125 1.9864700317382813 6.757559814453125 5.44384 69.2461 -11.7253 1.91525 5.15238 3.79883 -4.93087 31.4308 -4.89093 20.3704 20.0019 336.289 127.901 -81.5171 -240.191 -115.706696 5.6877 371.382 -40.1662 45.0467 30.7396 0.0 62.321 0.0 34.6525 8.35493 65.6781 0.0 0.0 0.0 0.0 0.0 0.0 114.7158 7.13209 -366.351 50.1008 43.3209 -367.645 0.0 146.135 0.0 -1.06535 -2.83329 50.4943 0.0 0.0 0.0 0.0 0.0 0.0 -43.7896 -65.6674 -15.0346 0.0 89.5889 0.0 -24.7517 25.7136 6.95274 0.0 -26.8906 0.0 20.6398 -47.9068 17.7404 0.0 72.8188 0.0 71.5933 14.832489 9.23668 0.0 21.711899 0.0 
  2.359779968261719 1.9883099365234376 6.7562799072265625 5.12986 69.2253 -11.3508 1.92398 4.96455 3.75088 -4.88068 31.583 -4.8792 20.928 19.7096 335.868 128.647 -81.2438 -239.348 -115.7241 5.76489 371.423 -40.009 45.1252 30.5864 0.0 62.1395 0.0 34.6874 8.26748 65.6584 0.0 0.0 0.0 0.0 0.0 0.0 114.6483 7.04763 -366.222 50.4288 43.5348 -367.579 0.0 146.068 0.0 -0.719466 -2.37301 51.1878 0.0 0.0 0.0 0.0 0.0 0.0 -43.7221 -65.6692 -14.9363 0.0 89.5981 0.0 -24.6884 25.8964 6.91234 0.0 -27.0144 0.0 20.6697 -47.9163 17.7324 0.0 72.8355 0.0 71.7042 14.848079 9.13528 0.0 21.7207 0.0 
  2.3664199829101564 1.9895500183105468 6.755650024414063 4.84534 69.1938 -10.9885 1.92058 4.77514 3.67746 -4.81716 31.7435 -4.89515 21.0583 19.5507 335.845 129.178 -81.0982 -239.065 -115.7447 5.86236 371.565 -39.7281 45.1729 30.1925 0.0 62.0703 0.0 34.5632 8.21222 65.5409 0.0 0.0 0.0 0.0 0.0 0.0 114.504196 6.97467 -366.16 50.8785 43.7659 -367.348 0.0 145.654 0.0 0.312512 -0.220732 52.1667 0.0 0.0 0.0 0.0 0.0 0.0 -43.6163 -65.6409 -14.6976 0.0 89.5955 0.0 -25.1549 25.8037 6.98975 0.0 -26.4193 0.0 20.6635 -47.9163 17.7028 0.0 72.8661 0.0 71.6527 14.893994 9.07313 0.0 21.509998 0.0 
  2.3716900634765623 1.9905000305175782 6.755659790039062 4.44985 69.1338 -10.5667 1.92241 4.6026 3.62749 -4.74465 31.9857 -4.856 21.5189 19.2934 335.465 129.635 -80.8749 -238.422 -115.7387 5.96177 371.674 -39.4855 45.2552 29.8582 0.0 62.0204 0.0 34.5997 8.15631 65.4368 0.0 0.0 0.0 0.0 0.0 0.0 114.4569 6.95313 -365.943 51.1277 43.9142 -367.521 0.0 145.715 0.0 0.304618 -0.505924 52.3604 0.0 0.0 0.0 0.0 0.0 0.0 -43.2981 -65.6117 -14.248 0.0 89.5999 0.0 -24.9948 25.820099 6.91212 0.0 -26.8241 0.0 20.6492 -47.8227 17.5894 0.0 72.8131 0.0 71.7468 14.913027 9.09099 0.0 21.525799 0.0 
  2.3770100402832033 1.9934500122070313 6.75531982421875 4.07978 69.0744 -10.141 1.94238 4.47095 3.55428 -4.70556 32.1884 -4.87838 21.7262 19.194 335.371 130.24 -80.7224 -237.953 -115.7398 6.04565 371.794 -39.1401 45.3301 29.4741 0.0 61.9364 0.0 34.8119 8.27833 65.2772 0.0 0.0 0.0 0.0 0.0 0.0 114.3854 6.99468 -365.758 51.4117 44.0474 -367.704 0.0 145.699 0.0 0.350537 -0.492393 52.4983 0.0 0.0 0.0 0.0 0.0 0.0 -43.0614 -65.594 -13.7534 0.0 89.5965 0.0 -25.4148 25.549301 7.14025 0.0 -25.8999 0.0 20.5434 -47.7305 17.3472 0.0 72.719 0.0 71.8798 14.928566 9.15795 0.0 21.676498 0.0 
  2.38093994140625 1.9940499877929687 6.754970092773437 3.7606 69.0366 -9.78787 1.87338 4.25726 3.48051 -4.56482 32.4683 -4.83173 21.8277 19.1923 335.333 130.961 -80.5941 -237.291 -115.7697 6.14626 371.919 -38.834 45.4215 29.0535 0.0 61.8843 0.0 34.8563 8.29642 65.0131 0.0 0.0 0.0 0.0 0.0 0.0 114.316605 6.95352 -365.739 51.5225 44.3746 -367.594 0.0 145.579 0.0 0.751748 -0.226522 53.2638 0.0 0.0 0.0 0.0 0.0 0.0 -42.7519 -65.5686 -13.2378 0.0 89.5066 0.0 -25.0372 25.6596 7.06543 0.0 -26.418701 0.0 20.5138 -47.6531 17.2186 0.0 72.6676 0.0 71.928 14.921394 9.22938 0.0 21.707298 0.0 
  2.3847999572753906 1.9965199279785155 6.75344970703125 3.53954 69.0004 -9.50898 1.82781 4.11533 3.43164 -4.51015 32.6838 -4.82438 22.0698 19.1621 335.189 131.163 -80.4883 -236.99 -115.7432 6.23614 371.971 -38.5945 45.4554 28.7082 0.0 61.8225 0.0 34.9051 8.31711 64.6579 0.0 0.0 0.0 0.0 0.0 0.0 114.3299 6.9141 -365.583 51.6047 44.5357 -367.729 0.0 145.509 0.0 0.517107 -0.339201 53.091 0.0 0.0 0.0 0.0 0.0 0.0 -42.5289 -65.5294 -12.7559 0.0 89.3707 0.0 -25.1099 25.7042 7.00504 0.0 -26.4589 0.0 20.4332 -47.6274 17.0452 0.0 72.6354 0.0 71.9395 14.93831 9.25154 0.0 21.6908 0.0 
  2.385019989013672 1.9940699768066406 6.75427001953125 3.23969 68.7673 -9.03055 1.67218 3.99773 3.27226 -4.29908 33.1128 -4.8462 22.2825 19.0688 335.061 131.166 -80.4074 -236.959 -115.7303 6.3065 371.996 -38.3935 45.5219 28.3411 0.0 61.7304 0.0 34.8703 8.33914 64.4229 0.0 0.0 0.0 0.0 0.0 0.0 114.2955 6.93408 -365.4 51.7148 44.6145 -367.73 0.0 145.364 0.0 0.545683 -0.192959 53.605 0.0 0.0 0.0 0.0 0.0 0.0 -42.002 -65.2525 -11.7862 0.0 89.3188 0.0 -25.4255 25.4085 7.1005 0.0 -26.2115 0.0 20.187 -47.4529 16.6443 0.0 72.6951 0.0 71.6128 15.031042 9.26382 0.0 21.353802 0.0 
  2.38843994140625 1.9959100341796876 6.752349853515625 2.97742 68.7152 -8.71534 1.62524 3.92602 3.21917 -4.22708 33.2438 -4.85144 22.3973 19.1803 335.051 131.176 -80.3929 -236.897 -115.7866 6.38613 371.981 -38.1686 45.4609 28.0767 0.0 61.6186 0.0 34.8947 8.48591 64.3304 0.0 0.0 0.0 0.0 0.0 0.0 114.3126 6.94414 -365.423 51.6622 44.7236 -367.657 0.0 145.264 0.0 0.192174 -0.354778 53.8614 0.0 0.0 0.0 0.0 0.0 0.0 -41.7471 -65.1737 -11.2892 0.0 89.1408 0.0 -25.5563 25.532799 6.95768 0.0 -26.236801 0.0 20.1073 -47.437 16.4559 0.0 72.6941 0.0 71.6198 15.111225 9.26474 0.0 21.250702 0.0 
  2.39156005859375 1.9986099243164062 6.750020141601563 2.69172 68.742 -8.3756 1.60304 3.84637 3.18686 -4.1797 33.3409 -4.84565 22.6084 19.1656 334.952 130.927 -80.3626 -237.078 -115.7932 6.39582 371.937 -38.062 45.4565 27.9126 0.0 61.5604 0.0 34.8063 8.54455 64.135 0.0 0.0 0.0 0.0 0.0 0.0 114.3495 6.88818 -365.285 51.7233 44.7195 -367.684 0.0 145.204 0.0 0.1065 -0.478196 53.8835 0.0 0.0 0.0 0.0 0.0 0.0 -41.4715 -65.207 -10.6259 0.0 89.062 0.0 -25.746 25.402401 7.07411 0.0 -25.9239 0.0 20.0487 -47.4876 16.2646 0.0 72.6766 0.0 71.6698 15.201638 9.30569 0.0 21.152199 0.0 
  2.3939700317382813 2.0005499267578126 6.748720092773437 2.39716 68.7701 -8.04579 1.57619 3.70244 3.15057 -4.13463 33.5376 -4.8284 22.696 19.2468 334.984 130.791 -80.3496 -237.203 -115.7662 6.42822 371.931 -37.9185 45.4795 27.6735 0.0 61.5135 0.0 34.8051 8.6315 64.0806 0.0 0.0 0.0 0.0 0.0 0.0 114.2894 6.86694 -365.282 51.8137 44.7494 -367.496 0.0 144.983 0.0 0.528791 0.241017 54.4052 0.0 0.0 0.0 0.0 0.0 0.0 -41.1815 -65.2258 -10.0755 0.0 88.9519 0.0 -25.3796 25.5626 6.90204 0.0 -26.5259 0.0 20.0063 -47.5111 16.0921 0.0 72.641 0.0 71.7769 15.271598 9.3687 0.0 21.2113 0.0 
  2.398179931640625 2.002030029296875 6.747730102539062 2.13143 68.7661 -7.71843 1.60276 3.67341 3.12972 -4.1452 33.6276 -4.84409 22.8609 19.3043 334.917 130.805 -80.3266 -237.155 -115.7607 6.45658 371.988 -37.7388 45.4856 27.4099 0.0 61.5345 0.0 34.854 8.63776 63.8876 0.0 0.0 0.0 0.0 0.0 0.0 114.3543 6.78781 -365.166 51.8273 44.6965 -367.63 0.0 144.98 0.0 0.159599 0.114608 54.1781 0.0 0.0 0.0 0.0 0.0 0.0 -41.0284 -65.1785 -9.62876 0.0 88.8693 0.0 -25.8273 25.415699 6.98893 0.0 -25.952599 0.0 19.8826 -47.5047 15.8434 0.0 72.6017 0.0 71.9004 15.349247 9.46675 0.0 21.205002 0.0 
  2.4016600036621094 2.003560028076172 6.746530151367187 1.95116 68.7859 -7.47177 1.54794 3.65317 3.09242 -4.0666 33.6311 -4.84672 22.9607 19.5264 334.876 131.403 -80.3081 -236.506 -115.7927 6.52613 372.026 -37.622 45.4232 27.182 0.0 61.5181 0.0 34.8525 8.74996 63.7659 0.0 0.0 0.0 0.0 0.0 0.0 114.5103 6.64346 -365.982 51.0979 45.3786 -366.739 0.0 144.773 0.0 0.306045 0.651779 54.5544 0.0 0.0 0.0 0.0 0.0 0.0 -40.8537 -65.1795 -9.17952 0.0 88.7377 0.0 -25.4356 25.6516 6.87838 0.0 -26.6866 0.0 19.7658 -47.5242 15.6363 0.0 72.5695 0.0 72.0168 15.399605 9.58717 0.0 21.308899 0.0 
